<svg width="36" height="36" viewBox="0 0 36 36" fill="none" xmlns="http://www.w3.org/2000/svg">
<path d="M3.27273 36C2.37273 36 1.60227 35.6643 0.961364 34.9929C0.320455 34.3214 0 33.5143 0 32.5714V12C0 11.5143 0.156818 11.1071 0.470455 10.7786C0.784091 10.45 1.17273 10.2857 1.63636 10.2857C2.1 10.2857 2.48864 10.45 2.80227 10.7786C3.11591 11.1071 3.27273 11.5143 3.27273 12V32.5714H26.1818C26.6455 32.5714 27.0341 32.7357 27.3477 33.0643C27.6614 33.3929 27.8182 33.8 27.8182 34.2857C27.8182 34.7714 27.6614 35.1786 27.3477 35.5071C27.0341 35.8357 26.6455 36 26.1818 36H3.27273ZM9.81818 29.1429C8.91818 29.1429 8.14773 28.8071 7.50682 28.1357C6.86591 27.4643 6.54545 26.6571 6.54545 25.7143V11.1429C6.54545 10.5429 6.675 9.97143 6.93409 9.42857C7.19318 8.88571 7.58182 8.45714 8.1 8.14286L21.2727 0L25.2818 2.48571L22.8273 4.97143L21.2727 4.02857L10.1455 10.8857L21.2727 17.7429L32.4 10.8857L30.1909 9.51429L32.5636 7.02857L34.4455 8.14286C34.9636 8.45714 35.3523 8.88571 35.6114 9.42857C35.8705 9.97143 36 10.5429 36 11.1429V25.7143C36 26.6571 35.6795 27.4643 35.0386 28.1357C34.3977 28.8071 33.6273 29.1429 32.7273 29.1429H9.81818ZM21.0273 10.6286L27.4909 3.85714C27.7909 3.54286 28.1727 3.38571 28.6364 3.38571C29.1 3.38571 29.4818 3.54286 29.7818 3.85714C30.0818 4.17143 30.2318 4.57143 30.2318 5.05714C30.2318 5.54286 30.0818 5.94286 29.7818 6.25714L22.1727 14.2286C21.8455 14.5714 21.4636 14.7429 21.0273 14.7429C20.5909 14.7429 20.2091 14.5714 19.8818 14.2286L17.5909 11.8286C17.2909 11.5143 17.1409 11.1143 17.1409 10.6286C17.1409 10.1429 17.2909 9.74286 17.5909 9.42857C17.8909 9.11429 18.2727 8.95714 18.7364 8.95714C19.2 8.95714 19.5818 9.11429 19.8818 9.42857L21.0273 10.6286Z" fill="#616161"/>
</svg>
