<svg width="35" height="35" viewBox="0 0 35 35" fill="none" xmlns="http://www.w3.org/2000/svg">
<path d="M17.5 0C7.84 0 0 7.84 0 17.5C0 27.16 7.84 35 17.5 35C27.16 35 35 27.16 35 17.5C35 7.84 27.16 0 17.5 0ZM19.25 29.75H15.75V26.25H19.25V29.75ZM22.8725 16.1875L21.2975 17.7975C20.0375 19.075 19.25 20.125 19.25 22.75H15.75V21.875C15.75 19.95 16.5375 18.2 17.7975 16.9225L19.9675 14.7175C20.615 14.0875 21 13.2125 21 12.25C21 10.325 19.425 8.75 17.5 8.75C15.575 8.75 14 10.325 14 12.25H10.5C10.5 8.3825 13.6325 5.25 17.5 5.25C21.3675 5.25 24.5 8.3825 24.5 12.25C24.5 13.79 23.87 15.19 22.8725 16.1875Z" fill="#FFF8E6"/>
</svg>
