<svg width="30" height="30" viewBox="0 0 30 30" fill="none" xmlns="http://www.w3.org/2000/svg">
<path d="M25.6466 30C25.0718 30 24.5259 29.8924 24.0086 29.6771C23.4914 29.4607 23.0172 29.1367 22.5862 28.705L13.9655 20.0288C13.3908 20.259 12.8092 20.4317 12.2207 20.5468C11.631 20.6619 11.0057 20.7194 10.3448 20.7194C7.47126 20.7194 5.02874 19.7122 3.01724 17.6978C1.00575 15.6835 0 13.2374 0 10.3597C0 9.32374 0.143678 8.33784 0.431035 7.40201C0.718391 6.46734 1.12069 5.58273 1.63793 4.7482L7.93103 11.0504L11.0345 7.94245L4.74138 1.64029C5.57471 1.1223 6.45805 0.719424 7.39138 0.431655C8.32586 0.143885 9.31035 0 10.3448 0C13.2184 0 15.6609 1.00719 17.6724 3.02158C19.6839 5.03597 20.6897 7.48201 20.6897 10.3597C20.6897 11.0216 20.6322 11.6472 20.5172 12.2365C20.4023 12.8271 20.2299 13.4101 20 13.9856L28.7069 22.6187C29.1379 23.0504 29.4615 23.5252 29.6776 24.0432C29.8925 24.5611 30 25.1079 30 25.6835C30 26.259 29.8851 26.8127 29.6552 27.3445C29.4253 27.8774 29.1092 28.3453 28.7069 28.7482C28.2759 29.1799 27.8017 29.4964 27.2845 29.6978C26.7672 29.8993 26.2213 30 25.6466 30Z" fill="#FFF8E6"/>
</svg>
