<svg width="40" height="47" viewBox="0 0 40 47" fill="none" xmlns="http://www.w3.org/2000/svg">
<path d="M20 0.65332C10.5323 0.65332 2.85721 8.27724 2.85721 17.6818V27.8586L0.836918 29.8654C0.0197841 30.6771 -0.22466 31.8978 0.21757 32.9583C0.659799 34.0188 1.70161 34.7103 2.85721 34.7103H37.1428C38.2984 34.7103 39.3402 34.0188 39.7824 32.9583C40.2247 31.8978 39.9802 30.6771 39.1631 29.8654L37.1428 27.8586V17.6818C37.1428 8.27724 29.4677 0.65332 20 0.65332Z" fill="#F6F6F8"/>
<path d="M19.9999 46.0627C15.2661 46.0627 11.4285 42.2507 11.4285 37.5484H28.5713C28.5713 42.2507 24.7338 46.0627 19.9999 46.0627Z" fill="#F6F6F8"/>
</svg>
